# xmcd
# 
# Track frame offsets:
#     150
#     16240
#     34721
#     60386
#     78319
#     109157
#     125935
#     152763
#     171920
#     194766
#     211293
#     229880
# 
# Disc length: 3170
# 
# Revision: 14
# Processed by: cddbd v1.5.2PL0 Copyright (c) Steve Scherf et al.
# Submitted via: fre:ac v1.0.31
# 
DISCID=a30c600c
DTITLE=Jimi Hendrix - People, Hell And Angels
DYEAR=2013
DGENRE=Rock/Pop
TTITLE0=Earth Blues
TTITLE1=Somewhere
TTITLE2=Hear My Train A Comin'
TTITLE3=Bleeding Heart
TTITLE4=Let Me Move You
TTITLE5=Izabella
TTITLE6=Easy Blues
TTITLE7=Crash Landing
TTITLE8=Inside Out
TTITLE9=Hey Gypsy Boy
TTITLE10=Mojo Man
TTITLE11=Villanova Junction Blues
EXTD=
EXTT0=
EXTT1=
EXTT2=
EXTT3=
EXTT4=
EXTT5=
EXTT6=
EXTT7=
EXTT8=
EXTT9=
EXTT10=
EXTT11=
PLAYORDER=
